<?xml version="1.0" encoding="UTF-8"?>
<svg id="Layer_2" data-name="Layer 2" xmlns="http://www.w3.org/2000/svg" viewBox="0 0 572.03 728.72">
  <defs>
    <style>
      .cls-1 {
        fill: #fff;
      }

      .cls-1, .cls-2 {
        stroke-width: 0px;
      }

      .cls-2 {
        fill: #07194b;
      }
    </style>
  </defs>
  <g id="Layer_1-2" data-name="Layer 1">
    <g>
      <path class="cls-2" d="m572.03,286v381.33h-92.03c-45.8,0-89.46,9.12-129.28,25.69-22.98,9.54-44.67,21.58-64.73,35.7-20.06-14.13-41.75-26.17-64.73-35.7-39.81-16.57-83.47-25.69-129.31-25.69H0v-190.67h47.68l47.65,95.33-.03.06c16.18.15,32.13,1.4,47.71,3.75,33.67,5.13,65.71,15.23,95.33,29.53,16.69,8.08,32.63,17.46,47.65,28.04,15.02-10.58,30.96-20,47.68-28.04,29.62-14.33,61.66-24.41,95.33-29.53,15.56-2.35,31.5-3.61,47.68-3.75v-190.67c-44.61.42-87.14,9.48-125.97,25.66-22.98,9.54-44.67,21.55-64.73,35.7-20.06-14.16-41.75-26.17-64.73-35.7-39.81-16.57-83.47-25.72-129.31-25.72H0V0h91.97c17.37,0,34.39,1.28,51.05,3.81,33.67,5.13,65.71,15.23,95.33,29.53,16.69,8.08,32.63,17.46,47.65,28.04,15.02-10.58,30.96-20,47.68-28.04,29.62-14.33,61.66-24.41,95.33-29.53,15.56-2.38,31.5-3.64,47.68-3.78v95.36c-44.61.39-87.11,9.45-125.97,25.63-22.98,9.54-44.67,21.58-64.73,35.7-20.06-14.13-41.75-26.17-64.73-35.7-38.83-16.15-81.36-25.21-125.94-25.66v190.7c16.18.18,32.12,1.4,47.68,3.78,33.67,5.1,65.71,15.2,95.33,29.53,16.69,8.05,32.63,17.43,47.65,28.04,15.02-10.61,30.96-20,47.68-28.07,29.62-14.3,61.66-24.41,95.33-29.5,16.63-2.53,33.68-3.84,50.99-3.84h92.03Z"/>
      <path class="cls-1" d="m572.03,0v190.67l-47.68-47.68-47.65,47.68V.03c1.1-.03,2.24-.03,3.34-.03h92Z"/>
    </g>
  </g>
</svg>