<?xml version="1.0" encoding="UTF-8"?>
<svg id="Layer_2" data-name="Layer 2" xmlns="http://www.w3.org/2000/svg" viewBox="0 0 624.25 196.85">
  <defs>
    <style>
      .cls-1 {
        fill: #fff;
      }

      .cls-1, .cls-2 {
        stroke-width: 0px;
      }

      .cls-2 {
        fill: #27eabb;
      }
    </style>
  </defs>
  <g id="Layer_1-2" data-name="Layer 1">
    <g>
      <g>
        <path class="cls-1" d="m154.52,77.26v103.01h-24.86c-12.37,0-24.17,2.46-34.92,6.94-6.21,2.58-12.07,5.83-17.48,9.64-5.42-3.82-11.28-7.07-17.48-9.64-10.75-4.48-22.55-6.94-34.93-6.94H0v-51.5h12.88l12.87,25.75v.02c4.36.04,8.67.38,12.88,1.01,9.1,1.38,17.75,4.11,25.75,7.98,4.51,2.18,8.81,4.72,12.87,7.58,4.06-2.86,8.36-5.4,12.88-7.58,8-3.87,16.66-6.59,25.75-7.98,4.2-.64,8.51-.97,12.88-1.01v-51.5c-12.05.11-23.54,2.56-34.03,6.93-6.21,2.58-12.07,5.82-17.48,9.64-5.42-3.82-11.28-7.07-17.48-9.64-10.75-4.48-22.55-6.95-34.93-6.95H0V0h24.84c4.69,0,9.29.35,13.79,1.03,9.1,1.38,17.75,4.11,25.75,7.98,4.51,2.18,8.81,4.72,12.87,7.58,4.06-2.86,8.36-5.4,12.88-7.58,8-3.87,16.66-6.59,25.75-7.98C120.09.39,124.4.05,128.77,0v25.76c-12.05.1-23.53,2.55-34.03,6.92-6.21,2.58-12.07,5.83-17.48,9.64-5.42-3.82-11.28-7.07-17.48-9.64-10.49-4.36-21.98-6.81-34.02-6.93v51.51c4.37.05,8.68.38,12.88,1.02,9.1,1.38,17.75,4.11,25.75,7.98,4.51,2.17,8.81,4.71,12.87,7.58,4.06-2.87,8.36-5.4,12.88-7.58,8-3.86,16.66-6.59,25.75-7.97,4.49-.68,9.1-1.04,13.77-1.04h24.86Z"/>
        <path class="cls-1" d="m154.52,0v51.5l-12.88-12.88-12.87,12.88V0c.3,0,.6,0,.9,0h24.85Z"/>
      </g>
      <path class="cls-1" d="m215.75,52.49l9.69,2.95c1.24.32,2.24.71,3.02,1.17.78.46,1.34,1.09,1.68,1.89.34.8.51,1.91.51,3.33,0,1.65-.24,2.91-.72,3.78-.48.87-1.32,1.44-2.51,1.72s-2.84.41-4.95.41h-3.71c-1.33,0-2.91-.03-4.74-.1-1.83-.07-4.1-.15-6.8-.24l-.55,6.18c3.48.73,6.58,1.19,9.31,1.37,2.72.18,4.87.27,6.42.27,3.02,0,5.61-.21,7.76-.62s3.89-1.1,5.22-2.06,2.31-2.31,2.95-4.05c.64-1.74.96-3.96.96-6.66,0-3.62-.71-6.52-2.13-8.69-1.42-2.17-4.01-3.84-7.76-4.98l-9.34-2.75c-1.92-.5-3.31-1.19-4.16-2.06-.85-.87-1.27-2.34-1.27-4.4,0-1.33.15-2.37.45-3.13.3-.76.77-1.32,1.41-1.68.64-.37,1.48-.59,2.51-.69,1.03-.09,2.28-.14,3.74-.14,2.38,0,4.87.03,7.45.1,2.59.07,4.87.13,6.84.17l.55-5.84c-2.47-.64-5-1.08-7.59-1.31-2.59-.23-5.05-.37-7.38-.41-2.93,0-5.44.17-7.52.52-2.08.34-3.79.96-5.12,1.85-1.33.89-2.31,2.2-2.95,3.92-.64,1.72-.96,3.93-.96,6.63,0,3.62.72,6.5,2.16,8.66,1.44,2.15,3.95,3.78,7.52,4.88Z"/>
      <path class="cls-1" d="m256.08,50.55c1.23-.8,2.28-1.46,3.16-1.98,1.1-.64,2.11-1.1,3.02-1.37.92-.27,1.83-.41,2.75-.41,1.47,0,2.56.36,3.3,1.06.73.71,1.1,1.96,1.1,3.74v22.74h8.04v-23.7c1.2-.8,2.26-1.47,3.16-1.99,1.1-.64,2.1-1.11,2.99-1.41.89-.3,1.82-.45,2.78-.45,1.6,0,2.72.38,3.37,1.13.64.76.99,1.98,1.03,3.68v22.74h8.24v-25.28c0-3.02-.79-5.32-2.37-6.9s-3.86-2.37-6.84-2.37c-2.43,0-4.73.53-6.9,1.58-1.93.93-3.92,2.3-5.97,4.09-.4-1.35-1.02-2.47-1.9-3.34-1.56-1.56-3.8-2.34-6.73-2.34-2.43,0-4.74.53-6.94,1.58-2.06.99-4.16,2.46-6.29,4.41l-.65-5.16h-6.66v33.73h8.31v-23.79Z"/>
      <path class="cls-1" d="m312.34,73.96c1.6.71,3.41,1.06,5.43,1.06s3.77-.3,5.39-.89,3.07-1.35,4.33-2.27c1.26-.92,2.32-1.84,3.19-2.78.1-.11.18-.2.28-.31l.89,5.56h6.59v-22.88c0-2.98-.47-5.31-1.41-7.01-.94-1.69-2.35-2.9-4.23-3.61-1.88-.71-4.17-1.07-6.87-1.07-1.65,0-3.5.07-5.57.21-2.06.14-4.1.32-6.11.55-2.02.23-3.82.5-5.43.82l.75,5.7c2.66-.23,5.3-.41,7.94-.55,2.63-.14,4.82-.21,6.56-.21,2.34,0,3.92.4,4.74,1.2.82.8,1.24,2.1,1.24,3.88v2.2h-12.98c-3.07,0-5.49.74-7.25,2.23-1.76,1.49-2.64,3.56-2.64,6.22v3.57c0,2.06.46,3.79,1.37,5.19.92,1.4,2.17,2.45,3.78,3.16Zm3.16-11.3c0-1.19.3-2.13.89-2.82.6-.69,1.58-1.05,2.95-1.1h10.72v6c-.46.35-.92.7-1.41,1.01-1.49.96-2.99,1.68-4.5,2.16-1.51.48-2.89.72-4.12.72-1.56,0-2.7-.34-3.44-1.03s-1.1-1.72-1.1-3.09v-1.85Z"/>
      <path class="cls-1" d="m362.5,41.47c-2.32,1.05-4.59,2.51-6.83,4.34l-.87-5.2h-6.46v33.73h8.31v-23.67c2.35-1,4.35-1.77,5.98-2.3,1.83-.59,3.64-.89,5.43-.89h2.4l.82-7.69h-1.65c-2.29,0-4.67.56-7.15,1.68Z"/>
      <path class="cls-1" d="m392.52,74.92c1.05-.07,2.13-.2,3.23-.38,1.1-.18,2.04-.39,2.82-.62l-.89-5.84h-4.67c-1.51,0-2.58-.31-3.19-.93-.62-.62-.93-1.61-.93-2.99v-17.79h10.03v-5.77h-10.03v-9.62h-8.31v9.65l-5.98.31v5.43h5.98v19.44c0,2.98.81,5.26,2.44,6.84s3.9,2.37,6.84,2.37c.73,0,1.63-.03,2.68-.1Z"/>
      <path class="cls-1" d="m430.03,52.49l9.69,2.95c1.24.32,2.24.71,3.02,1.17.78.46,1.34,1.09,1.68,1.89.34.8.52,1.91.52,3.33,0,1.65-.24,2.91-.72,3.78-.48.87-1.32,1.44-2.51,1.72-1.19.27-2.84.41-4.95.41h-3.71c-1.33,0-2.91-.03-4.74-.1-1.83-.07-4.1-.15-6.8-.24l-.55,6.18c3.48.73,6.58,1.19,9.31,1.37,2.72.18,4.87.27,6.42.27,3.02,0,5.61-.21,7.76-.62,2.15-.41,3.89-1.1,5.22-2.06,1.33-.96,2.31-2.31,2.95-4.05.64-1.74.96-3.96.96-6.66,0-3.62-.71-6.52-2.13-8.69-1.42-2.17-4.01-3.84-7.76-4.98l-9.34-2.75c-1.92-.5-3.31-1.19-4.16-2.06-.85-.87-1.27-2.34-1.27-4.4,0-1.33.15-2.37.45-3.13.3-.76.77-1.32,1.41-1.68.64-.37,1.48-.59,2.51-.69,1.03-.09,2.28-.14,3.75-.14,2.38,0,4.87.03,7.45.1,2.59.07,4.87.13,6.83.17l.55-5.84c-2.47-.64-5-1.08-7.59-1.31-2.59-.23-5.05-.37-7.39-.41-2.93,0-5.44.17-7.52.52s-3.79.96-5.12,1.85-2.31,2.2-2.95,3.92c-.64,1.72-.96,3.93-.96,6.63,0,3.62.72,6.5,2.16,8.66,1.44,2.15,3.95,3.78,7.52,4.88Z"/>
      <path class="cls-1" d="m464.93,73.45c2.43,1.14,5.66,1.72,9.69,1.72,2.15,0,4.33-.16,6.53-.48,2.2-.32,4.19-.85,5.98-1.58l-.82-5.36c-1.24.14-2.51.25-3.81.34-1.31.09-2.52.16-3.64.21-1.12.05-2.03.07-2.71.07-2.34,0-4.18-.32-5.53-.96-1.35-.64-2.33-1.75-2.92-3.33-.6-1.58-.89-3.79-.89-6.63s.3-5.05.89-6.63c.59-1.58,1.57-2.68,2.92-3.3,1.35-.62,3.19-.93,5.53-.93,1.24,0,2.69.02,4.36.07,1.67.05,3.36.11,5.05.21l.96-5.22c-1.15-.5-2.43-.89-3.85-1.17-1.42-.27-2.82-.46-4.19-.55-1.37-.09-2.63-.14-3.78-.14-4.03,0-7.26.56-9.69,1.68-2.43,1.12-4.19,2.98-5.29,5.56-1.1,2.59-1.65,6.06-1.65,10.41s.54,7.82,1.61,10.41c1.08,2.59,2.83,4.46,5.26,5.6Z"/>
      <path class="cls-1" d="m523.87,74.34v-25.28c0-6.18-3.14-9.27-9.41-9.27-2.52,0-5.07.57-7.66,1.72-2.24.99-4.47,2.37-6.7,4.08.12-.67.22-1.4.31-2.19.16-1.49.24-3.08.24-4.77l-.07-12.37h-8.31v48.09h8.31v-23.66c2.13-1.21,4-2.15,5.57-2.79,1.79-.73,3.53-1.1,5.22-1.1,1.51,0,2.58.34,3.19,1.03.62.69.93,1.95.93,3.78v22.74h8.38Z"/>
      <path class="cls-1" d="m536.89,73.48c2.45,1.17,5.69,1.75,9.72,1.75s7.41-.58,9.86-1.75c2.45-1.17,4.21-3.05,5.29-5.63,1.08-2.59,1.61-6.03,1.61-10.34s-.54-7.76-1.61-10.37c-1.08-2.61-2.84-4.49-5.29-5.63-2.45-1.14-5.74-1.72-9.86-1.72s-7.27.57-9.72,1.72c-2.45,1.15-4.22,3.02-5.32,5.63s-1.65,6.07-1.65,10.37.55,7.75,1.65,10.34c1.1,2.59,2.87,4.47,5.32,5.63Zm2.44-22.91c.5-1.65,1.34-2.8,2.51-3.47,1.17-.66,2.76-1,4.77-1s3.69.33,4.88,1c1.19.66,2.03,1.82,2.51,3.47.48,1.65.72,3.96.72,6.94s-.24,5.29-.72,6.94c-.48,1.65-1.32,2.79-2.51,3.44-1.19.64-2.82.96-4.88.96s-3.61-.32-4.77-.96c-1.17-.64-2-1.79-2.51-3.44-.5-1.65-.76-3.96-.76-6.94s.25-5.29.76-6.94Z"/>
      <path class="cls-1" d="m575.09,73.48c2.45,1.17,5.69,1.75,9.72,1.75s7.41-.58,9.86-1.75c2.45-1.17,4.21-3.05,5.29-5.63,1.08-2.59,1.61-6.03,1.61-10.34s-.54-7.76-1.61-10.37c-1.08-2.61-2.84-4.49-5.29-5.63-2.45-1.14-5.74-1.72-9.86-1.72s-7.27.57-9.72,1.72c-2.45,1.15-4.22,3.02-5.32,5.63-1.1,2.61-1.65,6.07-1.65,10.37s.55,7.75,1.65,10.34c1.1,2.59,2.87,4.47,5.32,5.63Zm2.44-22.91c.5-1.65,1.34-2.8,2.51-3.47,1.17-.66,2.76-1,4.77-1s3.69.33,4.88,1c1.19.66,2.03,1.82,2.51,3.47.48,1.65.72,3.96.72,6.94s-.24,5.29-.72,6.94c-.48,1.65-1.32,2.79-2.51,3.44-1.19.64-2.82.96-4.88.96s-3.61-.32-4.77-.96c-1.17-.64-2-1.79-2.51-3.44-.5-1.65-.76-3.96-.76-6.94s.25-5.29.76-6.94Z"/>
      <path class="cls-1" d="m622.15,74.54c.89-.18,1.59-.39,2.1-.62l-.96-5.84h-2.95c-1.37,0-2.43-.33-3.16-1-.73-.66-1.1-1.64-1.1-2.92l.07-37.92h-8.31v39.98c0,2.84.82,5.02,2.47,6.53s3.87,2.27,6.66,2.27c.69,0,1.5-.03,2.44-.1.94-.07,1.85-.2,2.75-.38Z"/>
      <path class="cls-1" d="m294.85,137.89c-.66-.96-1.54-1.89-2.64-2.81-1.09-.92-2.44-1.9-4.04-2.96l-6.62-4.57v-.29l24.6-8.79v-7.03l-27.3,9.72v13.82l9.31,6.15c1.25.82,2.1,1.5,2.55,2.05.45.55.67,1.19.67,1.93,0,.98-.33,1.67-1,2.08-.66.41-1.74.62-3.22.62h-17.4c-2.93,0-4.39-1.46-4.39-4.39v-8.61h-5.74v8.61c0,2.93-1.6,4.39-4.8,4.39h-22.44c-1.45,0-2.47-.25-3.08-.76-.61-.51-.91-1.41-.91-2.69v-19.45h-6.15v3.16l-6.38,3.28c-3.16,1.64-5.59,3.42-7.29,5.33-1.7,1.91-2.55,4.33-2.55,7.26,0,2.69.71,4.77,2.14,6.24,1.43,1.46,3.5,2.2,6.24,2.2,2.23,0,3.93-.5,5.13-1.49,1.19-1,2.08-2.72,2.66-5.18h.35v.47c0,3.05.79,5.35,2.37,6.91,1.58,1.56,4.15,2.36,7.7,2.4h18.8c2.58,0,4.52-.57,5.83-1.7,1.31-1.13,2.22-2.99,2.72-5.56h.29c.55,2.5,1.62,4.33,3.22,5.51,1.6,1.17,3.9,1.76,6.91,1.76h15.05c3.9,0,6.76-.94,8.55-2.81,1.8-1.87,2.69-4.71,2.69-8.49,0-1.21-.15-2.32-.44-3.34-.29-1.01-.77-2-1.44-2.96Zm-72.58,3.37c0,1.29-.46,2.19-1.38,2.69-.92.51-2.53.76-4.83.76-1.76,0-2.98-.22-3.66-.67-.68-.45-1.03-1.2-1.03-2.26,0-1.17.49-2.15,1.46-2.93.98-.78,2.52-1.68,4.63-2.69l4.8-2.4v7.5Z"/>
      <path class="cls-1" d="m346.86,143.72c0,1.41-.3,2.44-.91,3.1-.61.66-1.69,1-3.25,1h-10.31c-.7,0-1.34-.1-1.9-.29-.57-.19-1.08-.55-1.55-1.05-.47-.51-.93-1.19-1.38-2.05-.45-.86-.91-1.97-1.38-3.34l-5.92-16.81-6.5,2.34,5.27,15c.31.78.56,1.48.73,2.11.18.62.26,1.15.26,1.58,0,.94-.34,1.59-1.03,1.96-.68.37-1.88.56-3.6.56h-7.97v-3.98h-5.97v4.1c0,2.58.64,4.48,1.93,5.71,1.29,1.23,3.1,1.85,5.45,1.85h4.39c2.5,0,4.34-.55,5.54-1.64,1.19-1.09,2-2.93,2.43-5.51l.23-.06c.62,1.41,1.28,2.57,1.96,3.49.68.92,1.45,1.65,2.31,2.2.86.55,1.84.94,2.93,1.17,1.09.23,2.38.35,3.87.35h10.19c3.75-.04,6.41-1.01,8-2.9,1.58-1.89,2.37-4.85,2.37-8.87v-31.57h-6.21v31.57Z"/>
      <rect class="cls-1" x="360.63" y="112.14" width="6.27" height="43.35"/>
      <path class="cls-1" d="m497.19,138.38l-.41-2.99-5.74.88.53,3.05c.39,2.3.59,4.08.59,5.33,0,2.5-1.02,3.75-3.05,3.75h-.76c-1.09,0-1.93-.39-2.52-1.17-.59-.78-.88-2.05-.88-3.81v-3.92h-5.74v3.9c0,1.9-.39,3.23-1.17,3.99-.78.76-2.03,1.14-3.75,1.14-1.09,0-2.19-.15-3.28-.44-1.09-.29-2.19-.71-3.28-1.26l2.46-4.86-5.1-2.46-2.34,4.8c-.31.66-.65,1.22-1.03,1.67-.37.45-.8.81-1.29,1.08-.49.27-1.06.47-1.73.59-.66.12-1.43.18-2.28.18h-46.33c-1.45,0-2.47-.25-3.08-.76-.61-.51-.91-1.41-.91-2.69v-19.45h-6.15v3.16l-6.38,3.28c-3.16,1.64-5.59,3.42-7.29,5.33-1.7,1.91-2.55,4.33-2.55,7.26,0,2.69.71,4.77,2.14,6.24,1.43,1.46,3.5,2.2,6.24,2.2,2.23,0,3.93-.5,5.13-1.49,1.19-1,2.08-2.72,2.66-5.18h.35v.47c0,3.05.79,5.35,2.37,6.91,1.58,1.56,4.15,2.36,7.7,2.4h43.87c2.34,0,4.28-.18,5.8-.56,1.52-.37,2.87-1.16,4.04-2.37l1.41.82c1.68,1.02,3.1,1.74,4.28,2.17,1.17.43,2.32.64,3.46.64,1.76,0,3.18-.62,4.28-1.86,1.09-1.24,1.8-3.12,2.11-5.64h.35c.47,2.52,1.4,4.4,2.78,5.64,1.39,1.24,3.41,1.86,6.06,1.86,5.97,0,8.96-3.85,8.96-11.54,0-1.84-.18-3.92-.53-6.27Zm-97.24,2.87c0,1.29-.46,2.19-1.38,2.69-.92.51-2.53.76-4.83.76-1.76,0-2.98-.22-3.66-.67-.68-.45-1.03-1.2-1.03-2.26,0-1.17.49-2.15,1.46-2.93.98-.78,2.52-1.68,4.63-2.69l4.8-2.4v7.5Z"/>
      <path class="cls-1" d="m513.53,142.31l-.88-5.15-5.68.94,1.23,7.44c.19,1.13.35,2.24.47,3.31.12,1.07.18,2.1.18,3.08.04,3.24-.74,5.71-2.34,7.41-1.6,1.7-4.28,2.55-8.03,2.55h-2.28v7.67h2.34c2.73,0,5.11-.44,7.12-1.32,2.01-.88,3.67-2.11,4.98-3.69,1.31-1.58,2.27-3.46,2.9-5.62.62-2.17.94-4.56.94-7.18,0-1.21-.08-2.62-.23-4.22-.16-1.6-.39-3.34-.7-5.21Z"/>
      <path class="cls-1" d="m604.21,143.72c0,1.41-.3,2.44-.91,3.1-.61.66-1.69,1-3.25,1h-10.19c-1.29,0-2.26-.24-2.9-.73-.64-.49-1.24-1.47-1.79-2.96l-4.51-12.07h-6.79l-3.51,2.11c-5.51,3.24-8.26,7.11-8.26,11.6,0,.31,0,.61.03.88.02.27.05.55.09.82-.66.16-1.37.25-2.11.29-.74.04-10.78.06-10.78.06-.7,0-1.34-.1-1.9-.29-.57-.19-1.08-.55-1.55-1.05-.47-.51-.93-1.19-1.38-2.05-.45-.86-.91-1.97-1.38-3.34l-5.92-16.81-6.5,2.34,5.27,15c.31.78.56,1.48.73,2.11.18.62.26,1.15.26,1.58,0,.94-.34,1.59-1.03,1.96-.68.37-1.88.56-3.6.56h-7.97v-3.98h-5.97v4.1c0,2.58.64,4.48,1.93,5.71,1.29,1.23,3.1,1.85,5.45,1.85h4.39c2.5,0,4.34-.55,5.54-1.64,1.19-1.09,2-2.93,2.43-5.51l.23-.06c.62,1.41,1.28,2.57,1.96,3.49.68.92,1.45,1.65,2.31,2.2.86.55,1.84.94,2.93,1.17,1.09.23,2.38.35,3.87.35h6.27c3.48,0,5.72-1.85,6.74-5.57h.47c.7,1.68,1.9,3.03,3.6,4.04,1.7,1.02,3.91,1.52,6.65,1.52h7.32v-4.57l.35-.06c.98,1.64,2.14,2.82,3.49,3.54,1.35.72,3.19,1.08,5.54,1.08h10.19c3.75-.04,6.41-1.01,8-2.9,1.58-1.89,2.37-4.85,2.37-8.87v-31.57h-6.21v31.57Zm-32.75,4.1c-1.37,0-2.45-.21-3.25-.64-.8-.43-1.2-1.15-1.2-2.17,0-.86.42-1.66,1.26-2.4.84-.74,2.04-1.44,3.6-2.11l4.1-1.82,3.46,9.14h-7.97Z"/>
      <rect class="cls-1" x="617.98" y="112.14" width="6.27" height="43.35"/>
      <polygon class="cls-1" points="391.82 117.05 396.47 121.71 400.38 117.8 403.44 120.86 408.09 116.21 403.44 111.56 399.53 115.47 396.47 112.4 391.82 117.05"/>
      <polygon class="cls-1" points="261.3 163.66 258.24 160.6 253.58 165.25 258.24 169.9 262.14 165.99 265.21 169.06 269.86 164.41 265.21 159.75 261.3 163.66"/>
      <rect class="cls-1" x="312.88" y="112.92" width="6.58" height="6.58" transform="translate(10.44 257.61) rotate(-45)"/>
      <polygon class="cls-1" points="217.41 112.4 212.76 117.05 217.41 121.71 221.32 117.8 224.38 120.86 229.03 116.21 224.38 111.56 220.47 115.47 217.41 112.4"/>
      <g>
        <path class="cls-1" d="m154.52,77.26v103.01h-24.86c-12.37,0-24.17,2.46-34.92,6.94-6.21,2.58-12.07,5.83-17.48,9.64-5.42-3.82-11.28-7.07-17.48-9.64-10.75-4.48-22.55-6.94-34.93-6.94H0v-51.5h12.88l12.87,25.75v.02c4.36.04,8.67.38,12.88,1.01,9.1,1.38,17.75,4.11,25.75,7.98,4.51,2.18,8.81,4.72,12.87,7.58,4.06-2.86,8.36-5.4,12.88-7.58,8-3.87,16.66-6.59,25.75-7.98,4.2-.64,8.51-.97,12.88-1.01v-51.5c-12.05.11-23.54,2.56-34.03,6.93-6.21,2.58-12.07,5.82-17.48,9.64-5.42-3.82-11.28-7.07-17.48-9.64-10.75-4.48-22.55-6.95-34.93-6.95H0V0h24.84c4.69,0,9.29.35,13.79,1.03,9.1,1.38,17.75,4.11,25.75,7.98,4.51,2.18,8.81,4.72,12.87,7.58,4.06-2.86,8.36-5.4,12.88-7.58,8-3.87,16.66-6.59,25.75-7.98C120.09.39,124.4.05,128.77,0v25.76c-12.05.1-23.53,2.55-34.03,6.92-6.21,2.58-12.07,5.83-17.48,9.64-5.42-3.82-11.28-7.07-17.48-9.64-10.49-4.36-21.98-6.81-34.02-6.93v51.51c4.37.05,8.68.38,12.88,1.02,9.1,1.38,17.75,4.11,25.75,7.98,4.51,2.17,8.81,4.71,12.87,7.58,4.06-2.87,8.36-5.4,12.88-7.58,8-3.86,16.66-6.59,25.75-7.97,4.49-.68,9.1-1.04,13.77-1.04h24.86Z"/>
        <path class="cls-2" d="m154.52,0v51.5l-12.88-12.88-12.87,12.88V0c.3,0,.6,0,.9,0h24.85Z"/>
      </g>
      <path class="cls-1" d="m215.75,52.49l9.69,2.95c1.24.32,2.24.71,3.02,1.17.78.46,1.34,1.09,1.68,1.89.34.8.51,1.91.51,3.33,0,1.65-.24,2.91-.72,3.78-.48.87-1.32,1.44-2.51,1.72s-2.84.41-4.95.41h-3.71c-1.33,0-2.91-.03-4.74-.1-1.83-.07-4.1-.15-6.8-.24l-.55,6.18c3.48.73,6.58,1.19,9.31,1.37,2.72.18,4.87.27,6.42.27,3.02,0,5.61-.21,7.76-.62s3.89-1.1,5.22-2.06,2.31-2.31,2.95-4.05c.64-1.74.96-3.96.96-6.66,0-3.62-.71-6.52-2.13-8.69-1.42-2.17-4.01-3.84-7.76-4.98l-9.34-2.75c-1.92-.5-3.31-1.19-4.16-2.06-.85-.87-1.27-2.34-1.27-4.4,0-1.33.15-2.37.45-3.13.3-.76.77-1.32,1.41-1.68.64-.37,1.48-.59,2.51-.69,1.03-.09,2.28-.14,3.74-.14,2.38,0,4.87.03,7.45.1,2.59.07,4.87.13,6.84.17l.55-5.84c-2.47-.64-5-1.08-7.59-1.31-2.59-.23-5.05-.37-7.38-.41-2.93,0-5.44.17-7.52.52-2.08.34-3.79.96-5.12,1.85-1.33.89-2.31,2.2-2.95,3.92-.64,1.72-.96,3.93-.96,6.63,0,3.62.72,6.5,2.16,8.66,1.44,2.15,3.95,3.78,7.52,4.88Z"/>
      <path class="cls-1" d="m256.08,50.55c1.23-.8,2.28-1.46,3.16-1.98,1.1-.64,2.11-1.1,3.02-1.37.92-.27,1.83-.41,2.75-.41,1.47,0,2.56.36,3.3,1.06.73.71,1.1,1.96,1.1,3.74v22.74h8.04v-23.7c1.2-.8,2.26-1.47,3.16-1.99,1.1-.64,2.1-1.11,2.99-1.41.89-.3,1.82-.45,2.78-.45,1.6,0,2.72.38,3.37,1.13.64.76.99,1.98,1.03,3.68v22.74h8.24v-25.28c0-3.02-.79-5.32-2.37-6.9s-3.86-2.37-6.84-2.37c-2.43,0-4.73.53-6.9,1.58-1.93.93-3.92,2.3-5.97,4.09-.4-1.35-1.02-2.47-1.9-3.34-1.56-1.56-3.8-2.34-6.73-2.34-2.43,0-4.74.53-6.94,1.58-2.06.99-4.16,2.46-6.29,4.41l-.65-5.16h-6.66v33.73h8.31v-23.79Z"/>
      <path class="cls-1" d="m312.34,73.96c1.6.71,3.41,1.06,5.43,1.06s3.77-.3,5.39-.89,3.07-1.35,4.33-2.27c1.26-.92,2.32-1.84,3.19-2.78.1-.11.18-.2.28-.31l.89,5.56h6.59v-22.88c0-2.98-.47-5.31-1.41-7.01-.94-1.69-2.35-2.9-4.23-3.61-1.88-.71-4.17-1.07-6.87-1.07-1.65,0-3.5.07-5.57.21-2.06.14-4.1.32-6.11.55-2.02.23-3.82.5-5.43.82l.75,5.7c2.66-.23,5.3-.41,7.94-.55,2.63-.14,4.82-.21,6.56-.21,2.34,0,3.92.4,4.74,1.2.82.8,1.24,2.1,1.24,3.88v2.2h-12.98c-3.07,0-5.49.74-7.25,2.23-1.76,1.49-2.64,3.56-2.64,6.22v3.57c0,2.06.46,3.79,1.37,5.19.92,1.4,2.17,2.45,3.78,3.16Zm3.16-11.3c0-1.19.3-2.13.89-2.82.6-.69,1.58-1.05,2.95-1.1h10.72v6c-.46.35-.92.7-1.41,1.01-1.49.96-2.99,1.68-4.5,2.16-1.51.48-2.89.72-4.12.72-1.56,0-2.7-.34-3.44-1.03s-1.1-1.72-1.1-3.09v-1.85Z"/>
      <path class="cls-1" d="m362.5,41.47c-2.32,1.05-4.59,2.51-6.83,4.34l-.87-5.2h-6.46v33.73h8.31v-23.67c2.35-1,4.35-1.77,5.98-2.3,1.83-.59,3.64-.89,5.43-.89h2.4l.82-7.69h-1.65c-2.29,0-4.67.56-7.15,1.68Z"/>
      <path class="cls-1" d="m392.52,74.92c1.05-.07,2.13-.2,3.23-.38,1.1-.18,2.04-.39,2.82-.62l-.89-5.84h-4.67c-1.51,0-2.58-.31-3.19-.93-.62-.62-.93-1.61-.93-2.99v-17.79h10.03v-5.77h-10.03v-9.62h-8.31v9.65l-5.98.31v5.43h5.98v19.44c0,2.98.81,5.26,2.44,6.84s3.9,2.37,6.84,2.37c.73,0,1.63-.03,2.68-.1Z"/>
      <path class="cls-1" d="m430.03,52.49l9.69,2.95c1.24.32,2.24.71,3.02,1.17.78.46,1.34,1.09,1.68,1.89.34.8.52,1.91.52,3.33,0,1.65-.24,2.91-.72,3.78-.48.87-1.32,1.44-2.51,1.72-1.19.27-2.84.41-4.95.41h-3.71c-1.33,0-2.91-.03-4.74-.1-1.83-.07-4.1-.15-6.8-.24l-.55,6.18c3.48.73,6.58,1.19,9.31,1.37,2.72.18,4.87.27,6.42.27,3.02,0,5.61-.21,7.76-.62,2.15-.41,3.89-1.1,5.22-2.06,1.33-.96,2.31-2.31,2.95-4.05.64-1.74.96-3.96.96-6.66,0-3.62-.71-6.52-2.13-8.69-1.42-2.17-4.01-3.84-7.76-4.98l-9.34-2.75c-1.92-.5-3.31-1.19-4.16-2.06-.85-.87-1.27-2.34-1.27-4.4,0-1.33.15-2.37.45-3.13.3-.76.77-1.32,1.41-1.68.64-.37,1.48-.59,2.51-.69,1.03-.09,2.28-.14,3.75-.14,2.38,0,4.87.03,7.45.1,2.59.07,4.87.13,6.83.17l.55-5.84c-2.47-.64-5-1.08-7.59-1.31-2.59-.23-5.05-.37-7.39-.41-2.93,0-5.44.17-7.52.52s-3.79.96-5.12,1.85-2.31,2.2-2.95,3.92c-.64,1.72-.96,3.93-.96,6.63,0,3.62.72,6.5,2.16,8.66,1.44,2.15,3.95,3.78,7.52,4.88Z"/>
      <path class="cls-1" d="m464.93,73.45c2.43,1.14,5.66,1.72,9.69,1.72,2.15,0,4.33-.16,6.53-.48,2.2-.32,4.19-.85,5.98-1.58l-.82-5.36c-1.24.14-2.51.25-3.81.34-1.31.09-2.52.16-3.64.21-1.12.05-2.03.07-2.71.07-2.34,0-4.18-.32-5.53-.96-1.35-.64-2.33-1.75-2.92-3.33-.6-1.58-.89-3.79-.89-6.63s.3-5.05.89-6.63c.59-1.58,1.57-2.68,2.92-3.3,1.35-.62,3.19-.93,5.53-.93,1.24,0,2.69.02,4.36.07,1.67.05,3.36.11,5.05.21l.96-5.22c-1.15-.5-2.43-.89-3.85-1.17-1.42-.27-2.82-.46-4.19-.55-1.37-.09-2.63-.14-3.78-.14-4.03,0-7.26.56-9.69,1.68-2.43,1.12-4.19,2.98-5.29,5.56-1.1,2.59-1.65,6.06-1.65,10.41s.54,7.82,1.61,10.41c1.08,2.59,2.83,4.46,5.26,5.6Z"/>
      <path class="cls-1" d="m523.87,74.34v-25.28c0-6.18-3.14-9.27-9.41-9.27-2.52,0-5.07.57-7.66,1.72-2.24.99-4.47,2.37-6.7,4.08.12-.67.22-1.4.31-2.19.16-1.49.24-3.08.24-4.77l-.07-12.37h-8.31v48.09h8.31v-23.66c2.13-1.21,4-2.15,5.57-2.79,1.79-.73,3.53-1.1,5.22-1.1,1.51,0,2.58.34,3.19,1.03.62.69.93,1.95.93,3.78v22.74h8.38Z"/>
      <path class="cls-1" d="m536.89,73.48c2.45,1.17,5.69,1.75,9.72,1.75s7.41-.58,9.86-1.75c2.45-1.17,4.21-3.05,5.29-5.63,1.08-2.59,1.61-6.03,1.61-10.34s-.54-7.76-1.61-10.37c-1.08-2.61-2.84-4.49-5.29-5.63-2.45-1.14-5.74-1.72-9.86-1.72s-7.27.57-9.72,1.72c-2.45,1.15-4.22,3.02-5.32,5.63s-1.65,6.07-1.65,10.37.55,7.75,1.65,10.34c1.1,2.59,2.87,4.47,5.32,5.63Zm2.44-22.91c.5-1.65,1.34-2.8,2.51-3.47,1.17-.66,2.76-1,4.77-1s3.69.33,4.88,1c1.19.66,2.03,1.82,2.51,3.47.48,1.65.72,3.96.72,6.94s-.24,5.29-.72,6.94c-.48,1.65-1.32,2.79-2.51,3.44-1.19.64-2.82.96-4.88.96s-3.61-.32-4.77-.96c-1.17-.64-2-1.79-2.51-3.44-.5-1.65-.76-3.96-.76-6.94s.25-5.29.76-6.94Z"/>
      <path class="cls-1" d="m575.09,73.48c2.45,1.17,5.69,1.75,9.72,1.75s7.41-.58,9.86-1.75c2.45-1.17,4.21-3.05,5.29-5.63,1.08-2.59,1.61-6.03,1.61-10.34s-.54-7.76-1.61-10.37c-1.08-2.61-2.84-4.49-5.29-5.63-2.45-1.14-5.74-1.72-9.86-1.72s-7.27.57-9.72,1.72c-2.45,1.15-4.22,3.02-5.32,5.63-1.1,2.61-1.65,6.07-1.65,10.37s.55,7.75,1.65,10.34c1.1,2.59,2.87,4.47,5.32,5.63Zm2.44-22.91c.5-1.65,1.34-2.8,2.51-3.47,1.17-.66,2.76-1,4.77-1s3.69.33,4.88,1c1.19.66,2.03,1.82,2.51,3.47.48,1.65.72,3.96.72,6.94s-.24,5.29-.72,6.94c-.48,1.65-1.32,2.79-2.51,3.44-1.19.64-2.82.96-4.88.96s-3.61-.32-4.77-.96c-1.17-.64-2-1.79-2.51-3.44-.5-1.65-.76-3.96-.76-6.94s.25-5.29.76-6.94Z"/>
      <path class="cls-1" d="m622.15,74.54c.89-.18,1.59-.39,2.1-.62l-.96-5.84h-2.95c-1.37,0-2.43-.33-3.16-1-.73-.66-1.1-1.64-1.1-2.92l.07-37.92h-8.31v39.98c0,2.84.82,5.02,2.47,6.53s3.87,2.27,6.66,2.27c.69,0,1.5-.03,2.44-.1.94-.07,1.85-.2,2.75-.38Z"/>
      <path class="cls-1" d="m294.85,137.89c-.66-.96-1.54-1.89-2.64-2.81-1.09-.92-2.44-1.9-4.04-2.96l-6.62-4.57v-.29l24.6-8.79v-7.03l-27.3,9.72v13.82l9.31,6.15c1.25.82,2.1,1.5,2.55,2.05.45.55.67,1.19.67,1.93,0,.98-.33,1.67-1,2.08-.66.41-1.74.62-3.22.62h-17.4c-2.93,0-4.39-1.46-4.39-4.39v-8.61h-5.74v8.61c0,2.93-1.6,4.39-4.8,4.39h-22.44c-1.45,0-2.47-.25-3.08-.76-.61-.51-.91-1.41-.91-2.69v-19.45h-6.15v3.16l-6.38,3.28c-3.16,1.64-5.59,3.42-7.29,5.33-1.7,1.91-2.55,4.33-2.55,7.26,0,2.69.71,4.77,2.14,6.24,1.43,1.46,3.5,2.2,6.24,2.2,2.23,0,3.93-.5,5.13-1.49,1.19-1,2.08-2.72,2.66-5.18h.35v.47c0,3.05.79,5.35,2.37,6.91,1.58,1.56,4.15,2.36,7.7,2.4h18.8c2.58,0,4.52-.57,5.83-1.7,1.31-1.13,2.22-2.99,2.72-5.56h.29c.55,2.5,1.62,4.33,3.22,5.51,1.6,1.17,3.9,1.76,6.91,1.76h15.05c3.9,0,6.76-.94,8.55-2.81,1.8-1.87,2.69-4.71,2.69-8.49,0-1.21-.15-2.32-.44-3.34-.29-1.01-.77-2-1.44-2.96Zm-72.58,3.37c0,1.29-.46,2.19-1.38,2.69-.92.51-2.53.76-4.83.76-1.76,0-2.98-.22-3.66-.67-.68-.45-1.03-1.2-1.03-2.26,0-1.17.49-2.15,1.46-2.93.98-.78,2.52-1.68,4.63-2.69l4.8-2.4v7.5Z"/>
      <path class="cls-1" d="m346.86,143.72c0,1.41-.3,2.44-.91,3.1-.61.66-1.69,1-3.25,1h-10.31c-.7,0-1.34-.1-1.9-.29-.57-.19-1.08-.55-1.55-1.05-.47-.51-.93-1.19-1.38-2.05-.45-.86-.91-1.97-1.38-3.34l-5.92-16.81-6.5,2.34,5.27,15c.31.78.56,1.48.73,2.11.18.62.26,1.15.26,1.58,0,.94-.34,1.59-1.03,1.96-.68.37-1.88.56-3.6.56h-7.97v-3.98h-5.97v4.1c0,2.58.64,4.48,1.93,5.71,1.29,1.23,3.1,1.85,5.45,1.85h4.39c2.5,0,4.34-.55,5.54-1.64,1.19-1.09,2-2.93,2.43-5.51l.23-.06c.62,1.41,1.28,2.57,1.96,3.49.68.92,1.45,1.65,2.31,2.2.86.55,1.84.94,2.93,1.17,1.09.23,2.38.35,3.87.35h10.19c3.75-.04,6.41-1.01,8-2.9,1.58-1.89,2.37-4.85,2.37-8.87v-31.57h-6.21v31.57Z"/>
      <rect class="cls-1" x="360.63" y="112.14" width="6.27" height="43.35"/>
      <path class="cls-1" d="m497.19,138.38l-.41-2.99-5.74.88.53,3.05c.39,2.3.59,4.08.59,5.33,0,2.5-1.02,3.75-3.05,3.75h-.76c-1.09,0-1.93-.39-2.52-1.17-.59-.78-.88-2.05-.88-3.81v-3.92h-5.74v3.9c0,1.9-.39,3.23-1.17,3.99-.78.76-2.03,1.14-3.75,1.14-1.09,0-2.19-.15-3.28-.44-1.09-.29-2.19-.71-3.28-1.26l2.46-4.86-5.1-2.46-2.34,4.8c-.31.66-.65,1.22-1.03,1.67-.37.45-.8.81-1.29,1.08-.49.27-1.06.47-1.73.59-.66.12-1.43.18-2.28.18h-46.33c-1.45,0-2.47-.25-3.08-.76-.61-.51-.91-1.41-.91-2.69v-19.45h-6.15v3.16l-6.38,3.28c-3.16,1.64-5.59,3.42-7.29,5.33-1.7,1.91-2.55,4.33-2.55,7.26,0,2.69.71,4.77,2.14,6.24,1.43,1.46,3.5,2.2,6.24,2.2,2.23,0,3.93-.5,5.13-1.49,1.19-1,2.08-2.72,2.66-5.18h.35v.47c0,3.05.79,5.35,2.37,6.91,1.58,1.56,4.15,2.36,7.7,2.4h43.87c2.34,0,4.28-.18,5.8-.56,1.52-.37,2.87-1.16,4.04-2.37l1.41.82c1.68,1.02,3.1,1.74,4.28,2.17,1.17.43,2.32.64,3.46.64,1.76,0,3.18-.62,4.28-1.86,1.09-1.24,1.8-3.12,2.11-5.64h.35c.47,2.52,1.4,4.4,2.78,5.64,1.39,1.24,3.41,1.86,6.06,1.86,5.97,0,8.96-3.85,8.96-11.54,0-1.84-.18-3.92-.53-6.27Zm-97.24,2.87c0,1.29-.46,2.19-1.38,2.69-.92.51-2.53.76-4.83.76-1.76,0-2.98-.22-3.66-.67-.68-.45-1.03-1.2-1.03-2.26,0-1.17.49-2.15,1.46-2.93.98-.78,2.52-1.68,4.63-2.69l4.8-2.4v7.5Z"/>
      <path class="cls-1" d="m513.53,142.31l-.88-5.15-5.68.94,1.23,7.44c.19,1.13.35,2.24.47,3.31.12,1.07.18,2.1.18,3.08.04,3.24-.74,5.71-2.34,7.41-1.6,1.7-4.28,2.55-8.03,2.55h-2.28v7.67h2.34c2.73,0,5.11-.44,7.12-1.32,2.01-.88,3.67-2.11,4.98-3.69,1.31-1.58,2.27-3.46,2.9-5.62.62-2.17.94-4.56.94-7.18,0-1.21-.08-2.62-.23-4.22-.16-1.6-.39-3.34-.7-5.21Z"/>
      <path class="cls-1" d="m604.21,143.72c0,1.41-.3,2.44-.91,3.1-.61.66-1.69,1-3.25,1h-10.19c-1.29,0-2.26-.24-2.9-.73-.64-.49-1.24-1.47-1.79-2.96l-4.51-12.07h-6.79l-3.51,2.11c-5.51,3.24-8.26,7.11-8.26,11.6,0,.31,0,.61.03.88.02.27.05.55.09.82-.66.16-1.37.25-2.11.29-.74.04-10.78.06-10.78.06-.7,0-1.34-.1-1.9-.29-.57-.19-1.08-.55-1.55-1.05-.47-.51-.93-1.19-1.38-2.05-.45-.86-.91-1.97-1.38-3.34l-5.92-16.81-6.5,2.34,5.27,15c.31.78.56,1.48.73,2.11.18.62.26,1.15.26,1.58,0,.94-.34,1.59-1.03,1.96-.68.37-1.88.56-3.6.56h-7.97v-3.98h-5.97v4.1c0,2.58.64,4.48,1.93,5.71,1.29,1.23,3.1,1.85,5.45,1.85h4.39c2.5,0,4.34-.55,5.54-1.64,1.19-1.09,2-2.93,2.43-5.51l.23-.06c.62,1.41,1.28,2.57,1.96,3.49.68.92,1.45,1.65,2.31,2.2.86.55,1.84.94,2.93,1.17,1.09.23,2.38.35,3.87.35h6.27c3.48,0,5.72-1.85,6.74-5.57h.47c.7,1.68,1.9,3.03,3.6,4.04,1.7,1.02,3.91,1.52,6.65,1.52h7.32v-4.57l.35-.06c.98,1.64,2.14,2.82,3.49,3.54,1.35.72,3.19,1.08,5.54,1.08h10.19c3.75-.04,6.41-1.01,8-2.9,1.58-1.89,2.37-4.85,2.37-8.87v-31.57h-6.21v31.57Zm-32.75,4.1c-1.37,0-2.45-.21-3.25-.64-.8-.43-1.2-1.15-1.2-2.17,0-.86.42-1.66,1.26-2.4.84-.74,2.04-1.44,3.6-2.11l4.1-1.82,3.46,9.14h-7.97Z"/>
      <rect class="cls-1" x="617.98" y="112.14" width="6.27" height="43.35"/>
      <polygon class="cls-1" points="391.82 117.05 396.47 121.71 400.38 117.8 403.44 120.86 408.09 116.21 403.44 111.56 399.53 115.47 396.47 112.4 391.82 117.05"/>
      <polygon class="cls-1" points="261.3 163.66 258.24 160.6 253.58 165.25 258.24 169.9 262.14 165.99 265.21 169.06 269.86 164.41 265.21 159.75 261.3 163.66"/>
      <rect class="cls-1" x="312.88" y="112.92" width="6.58" height="6.58" transform="translate(10.44 257.61) rotate(-45)"/>
      <polygon class="cls-1" points="217.41 112.4 212.76 117.05 217.41 121.71 221.32 117.8 224.38 120.86 229.03 116.21 224.38 111.56 220.47 115.47 217.41 112.4"/>
    </g>
  </g>
</svg>